<?xml version="1.0" standalone="no"?>
<!DOCTYPE svg PUBLIC "-//W3C//DTD SVG 20010904//EN"
 "http://www.w3.org/TR/2001/REC-SVG-20010904/DTD/svg10.dtd">
<svg version="1.0" xmlns="http://www.w3.org/2000/svg"
 width="700.000000pt" height="700.000000pt" viewBox="0 0 700.000000 700.000000"
 preserveAspectRatio="xMidYMid meet">
<metadata>
Created by potrace 1.14, written by Peter Selinger 2001-2017
</metadata>
<g transform="translate(0.000000,700.000000) scale(0.100000,-0.100000)"
fill="#000000" stroke="none">
<path d="M3277 6935 c-1 -5 -3 -1202 -2 -2660 l1 -2650 476 -2 c441 -2 476 -1
480 15 2 9 3 79 2 155 -1 105 2 137 12 137 7 0 14 -3 16 -8 7 -15 116 -102
186 -147 159 -102 365 -179 557 -209 92 -15 427 -15 510 -1 385 66 694 228
950 499 283 299 462 707 500 1141 7 75 7 314 1 380 -39 395 -161 721 -380
1010 -265 350 -630 568 -1071 639 -131 21 -403 19 -537 -4 -60 -11 -112 -21
-116 -24 -5 -3 -19 -7 -33 -9 -113 -21 -342 -132 -463 -224 -49 -38 -97 -74
-107 -81 -18 -13 -18 24 -18 980 0 546 -1 1011 -1 1033 l0 41 -480 0 c-320 0
-481 -4 -483 -11z m1988 -2589 c383 -82 640 -360 708 -766 23 -136 12 -333
-25 -475 -92 -354 -358 -603 -698 -653 -60 -9 -272 -9 -336 0 -129 19 -280 85
-389 171 -226 176 -338 428 -339 762 -1 128 3 174 19 260 38 201 163 408 323
537 88 71 278 151 386 164 28 4 53 8 55 10 6 6 262 -3 296 -10z"/>
<path d="M1839 6845 c-194 -41 -362 -207 -409 -403 -25 -108 -17 -238 22 -349
39 -109 142 -228 238 -274 108 -52 149 -62 265 -62 208 0 345 68 454 227 27
39 85 166 76 166 -3 0 0 12 6 27 19 49 13 202 -10 288 -12 44 -28 87 -35 95
-6 8 -18 28 -26 45 -8 16 -44 60 -80 96 -101 103 -210 150 -360 154 -47 1
-110 -3 -141 -10z"/>
<path d="M1469 5167 c-1 -6 -2 -885 -3 -1952 -2 -1822 -3 -1944 -20 -1999 -41
-136 -136 -227 -284 -270 -77 -22 -228 -16 -307 12 -73 27 -153 79 -205 135
l-40 42 -305 -305 -306 -306 83 -82 c122 -120 267 -219 423 -290 74 -33 230
-78 305 -86 303 -36 542 -19 752 53 394 135 671 413 801 802 14 41 28 90 31
109 3 19 12 73 20 120 13 72 15 386 16 2057 l0 1973 -480 0 c-371 -1 -480 -3
-481 -13z"/>
</g>
</svg>
